<?xml version="1.0" encoding="utf-8"?>
<!-- Generator: Adobe Illustrator 28.0.0, SVG Export Plug-In . SVG Version: 6.00 Build 0)  -->
<svg version="1.1"
	 id="svg59" xmlns:inkscape="http://www.inkscape.org/namespaces/inkscape" xmlns:sodipodi="http://sodipodi.sourceforge.net/DTD/sodipodi-0.dtd" xmlns:rdf="http://www.w3.org/1999/02/22-rdf-syntax-ns#" xmlns:svg="http://www.w3.org/2000/svg" xmlns:cc="http://creativecommons.org/ns#" xmlns:dc="http://purl.org/dc/elements/1.1/" inkscape:export-filename="G:\Users\suitedoalex\sites\3m-logo-0.png"
	 xmlns="http://www.w3.org/2000/svg" xmlns:xlink="http://www.w3.org/1999/xlink" x="0px" y="0px" viewBox="0 0 700 264"
	 style="enable-background:new 0 0 700 264;" xml:space="preserve">
<style type="text/css">
	.st0{fill:#FF0000;}
</style>
<sodipodi:namedview  bordercolor="#666666" borderopacity="1" gridtolerance="10" guidetolerance="10" id="namedview61" inkscape:current-layer="svg59" inkscape:cx="12.924528" inkscape:cy="270.0786" inkscape:pageopacity="0" inkscape:pageshadow="2" inkscape:window-height="837" inkscape:window-maximized="1" inkscape:window-width="1600" inkscape:window-x="-8" inkscape:window-y="-8" inkscape:zoom="0.52515723" objecttolerance="10" pagecolor="#ffffff" showgrid="false">
	</sodipodi:namedview>
<g id="Page-1" transform="matrix(4.1835764,0,0,4.1835764,22.195909,798.70206)" inkscape:export-filename="G:\Users\suitedoalex\sites\3m-logo-4.png" inkscape:export-xdpi="58.571571" inkscape:export-ydpi="58.571571">
	<g id="Trifecta-3M-001-Lockup-CMYK-Pos">
		<path id="Shape" inkscape:connector-curvature="0" class="st0" d="M38.8-51.5L35.3-37l-3.6-14.5H21.2v5.4
			c-1.3-4.7-5.7-5.9-9.8-5.9C6.4-52.2,1.2-50,1-43.3h6.9c0-2,1.5-3.2,3.3-3.1c2.1,0,3.1,0.9,3.1,2.3c-0.1,1.2-0.8,2.1-3.1,2.1H8.8
			v4.8H11c1.2,0,2.9,0.7,2.9,2.4c0.1,2-1.3,2.9-3.1,3c-3.1-0.1-3.6-2.5-3.6-4.6H0C0-35.1-0.3-26,11-26.1c5.4,0.1,9.2-2.2,10.3-5.4
			v4.8h7.1v-15.7l3.8,15.7h6.2l3.9-15.7v15.7h7.1v-24.9H38.8z M21.2-37c-0.9-1.8-2.1-2.6-2.8-2.9c1.5-0.7,2.2-1.5,2.8-3.3V-37z"/>
		<g id="Group" transform="translate(56.356688)">
			<g id="g48">
				<path id="Path" inkscape:connector-curvature="0" d="M5.9-48.7c-0.1-0.5-0.5-1.4-1.8-1.4c-0.9,0-1.5,0.6-1.5,1.2
					c0,0.5,0.3,1,1,1.1L5-47.5c1.8,0.3,2.7,1.5,2.7,2.8c0,1.5-1.2,3-3.5,3c-2.6,0-3.7-1.6-3.8-3l1.7-0.5c0.1,1,0.7,1.8,2.1,1.8
					c1,0,1.6-0.5,1.6-1.2c0-0.6-0.4-1-1.2-1.1L3.3-46c-1.5-0.3-2.5-1.3-2.5-2.8c0-1.7,1.5-3,3.4-3c2.3,0,3.2,1.4,3.5,2.5L5.9-48.7z"
					/>
				<path id="path6" inkscape:connector-curvature="0" d="M10.4-45.2c0,1.2,0.8,1.9,1.7,1.9s1.4-0.6,1.5-1.1l1.6,0.5
					c-0.3,1.1-1.3,2.3-3.1,2.3c-2,0-3.5-1.5-3.5-3.6c0-2.1,1.5-3.6,3.5-3.6c1.8,0,2.9,1.1,3.1,2.3L13.5-46c-0.2-0.6-0.6-1.1-1.5-1.1
					C11.1-47.1,10.4-46.5,10.4-45.2z"/>
				<path id="path8" inkscape:connector-curvature="0" d="M17.3-51.9c0.6,0,1.1,0.5,1.1,1.1c0,0.6-0.5,1.1-1.1,1.1
					c-0.6,0-1.1-0.5-1.1-1.1C16.2-51.4,16.7-51.9,17.3-51.9z M16.4-41.9v-6.7h1.8v6.7H16.4z"/>
				<path id="path10" inkscape:connector-curvature="0" d="M26.1-43.8c-0.3,1.2-1.4,2.1-3,2.1c-1.8,0-3.5-1.3-3.5-3.6
					c0-2.1,1.6-3.5,3.3-3.5c2.1,0,3.3,1.3,3.3,3.5c0,0.3,0,0.5,0,0.6h-4.8c0,0.9,0.8,1.5,1.7,1.5c0.8,0,1.3-0.4,1.5-1L26.1-43.8z
					 M24.4-46c0-0.7-0.5-1.3-1.5-1.3c-0.9,0-1.5,0.7-1.5,1.3H24.4z"/>
				<path id="path12" inkscape:connector-curvature="0" d="M29.3-41.9h-1.8v-6.7h1.8v0.8c0.4-0.7,1.2-1,1.9-1c1.7,0,2.4,1.2,2.4,2.7
					v4.2h-1.8v-3.9c0-0.7-0.4-1.3-1.2-1.3c-0.8,0-1.3,0.6-1.3,1.4L29.3-41.9L29.3-41.9z"/>
				<path id="path14" inkscape:connector-curvature="0" d="M36.5-45.2c0,1.2,0.8,1.9,1.7,1.9s1.4-0.6,1.5-1.1l1.6,0.5
					c-0.3,1.1-1.3,2.3-3.1,2.3c-2,0-3.5-1.5-3.5-3.6c0-2.1,1.5-3.6,3.5-3.6c1.8,0,2.9,1.1,3.1,2.3L39.7-46c-0.2-0.6-0.6-1.1-1.5-1.1
					C37.3-47.1,36.5-46.5,36.5-45.2z"/>
				<path id="path16" inkscape:connector-curvature="0" d="M48.6-43.8c-0.3,1.2-1.4,2.1-3,2.1c-1.8,0-3.5-1.3-3.5-3.6
					c0-2.1,1.6-3.5,3.3-3.5c2.1,0,3.3,1.3,3.3,3.5c0,0.3,0,0.5,0,0.6h-4.8c0,0.9,0.8,1.5,1.7,1.5c0.8,0,1.3-0.4,1.5-1L48.6-43.8z
					 M46.9-46c0-0.7-0.5-1.3-1.5-1.3c-0.9,0-1.5,0.7-1.5,1.3H46.9z"/>
				<path id="path18" inkscape:connector-curvature="0" d="M51-44.3c0.7,0,1.3,0.6,1.3,1.2c0,0.7-0.6,1.2-1.3,1.2
					c-0.7,0-1.2-0.6-1.2-1.2C49.7-43.7,50.3-44.3,51-44.3z"/>
				<path id="path20" inkscape:connector-curvature="0" d="M6.8-29.1H2.9l-0.8,2.2h-2l3.7-9.6H6l3.7,9.6h-2L6.8-29.1z M3.5-30.8h2.7
					l-1.3-3.6L3.5-30.8z"/>
				<path id="path22" inkscape:connector-curvature="0" d="M10.7-24.3v-9.3h1.8v0.8c0.3-0.5,1-1,2.1-1c2,0,3.1,1.5,3.1,3.5
					c0,2-1.3,3.5-3.2,3.5c-0.9,0-1.6-0.4-1.9-0.8v3.2H10.7z M14.1-32.1c-0.9,0-1.7,0.7-1.7,1.9s0.7,1.9,1.7,1.9s1.7-0.7,1.7-1.9
					C15.8-31.4,15.1-32.1,14.1-32.1z"/>
				<path id="path24" inkscape:connector-curvature="0" d="M18.8-24.3v-9.3h1.8v0.8c0.3-0.5,1-1,2.1-1c2,0,3.1,1.5,3.1,3.5
					c0,2-1.3,3.5-3.2,3.5c-0.9,0-1.6-0.4-1.9-0.8v3.2H18.8z M22.2-32.1c-0.9,0-1.7,0.7-1.7,1.9s0.7,1.9,1.7,1.9s1.7-0.7,1.7-1.9
					C23.9-31.4,23.2-32.1,22.2-32.1z"/>
				<polygon id="polygon26" points="28.7,-26.9 26.9,-26.9 26.9,-36.8 28.7,-36.8 				"/>
				<path id="path28" inkscape:connector-curvature="0" d="M31.5-36.9c0.6,0,1.1,0.5,1.1,1.1c0,0.6-0.5,1.1-1.1,1.1
					c-0.6,0-1.1-0.5-1.1-1.1C30.3-36.4,30.8-36.9,31.5-36.9z M30.6-26.9v-6.7h1.8v6.7H30.6z"/>
				<path id="path30" inkscape:connector-curvature="0" d="M40.3-28.8c-0.3,1.2-1.4,2.1-3,2.1c-1.8,0-3.5-1.3-3.5-3.6
					c0-2.1,1.6-3.5,3.3-3.5c2.1,0,3.3,1.3,3.3,3.5c0,0.3,0,0.5,0,0.6h-4.8c0,0.9,0.8,1.5,1.7,1.5c0.8,0,1.3-0.4,1.5-1L40.3-28.8z
					 M38.6-31c0-0.7-0.5-1.3-1.5-1.3c-0.9,0-1.5,0.7-1.5,1.3H38.6z"/>
				<path id="path32" inkscape:connector-curvature="0" d="M48.2-28.1c0,0.5,0,0.9,0.1,1.2h-1.7c0-0.1-0.1-0.5-0.1-0.8
					c-0.3,0.5-1,0.9-1.9,0.9c-1.9,0-3.3-1.5-3.3-3.5c0-2,1.3-3.5,3.2-3.5c1.2,0,1.7,0.5,1.9,0.8v-3.8h1.8V-28.1z M44.8-28.4
					c0.9,0,1.6-0.7,1.6-1.9c0-1.2-0.7-1.9-1.6-1.9c-0.9,0-1.7,0.7-1.7,1.9C43.1-29.1,43.8-28.4,44.8-28.4z"/>
				<path id="path34" inkscape:connector-curvature="0" d="M55.3-33.6h1.3v1.6h-1.3v2.8c0,0.6,0.3,0.8,0.8,0.8c0.2,0,0.5,0,0.6-0.1
					v1.5c-0.2,0.1-0.5,0.2-1,0.2c-1.3,0-2.1-0.8-2.1-2.1V-32h-1.2v-1.6h0.3c0.7,0,1-0.5,1-1.1v-0.9h1.6L55.3-33.6L55.3-33.6z"/>
				<path id="path36" inkscape:connector-curvature="0" d="M64.5-30.3c0,2.1-1.5,3.6-3.5,3.6c-2,0-3.5-1.5-3.5-3.6
					c0-2.1,1.5-3.6,3.5-3.6S64.5-32.3,64.5-30.3z M62.7-30.3c0-1.3-0.8-1.9-1.7-1.9c-0.9,0-1.7,0.6-1.7,1.9c0,1.3,0.8,1.9,1.7,1.9
					C61.9-28.4,62.7-29,62.7-30.3L62.7-30.3z"/>
				<polygon id="polygon38" points="68.5,-36.6 70.4,-36.6 70.4,-28.7 74.7,-28.7 74.7,-26.9 68.5,-26.9 				"/>
				<path id="path40" inkscape:connector-curvature="0" d="M76.8-36.9c0.6,0,1.1,0.5,1.1,1.1c0,0.6-0.5,1.1-1.1,1.1
					c-0.6,0-1.1-0.5-1.1-1.1C75.7-36.4,76.2-36.9,76.8-36.9z M75.9-26.9v-6.7h1.8v6.7H75.9z"/>
				<path id="path42" inkscape:connector-curvature="0" d="M82-34.3v0.7h1.5v1.6H82v5.1h-1.8V-32h-1.1v-1.6h1.1v-0.8
					c0-1.5,1-2.5,2.4-2.5c0.4,0,0.7,0.1,0.9,0.1v1.5c-0.1,0-0.3-0.1-0.6-0.1C82.5-35.3,82-35.1,82-34.3z"/>
				<path id="path44" inkscape:connector-curvature="0" d="M90.4-28.8c-0.3,1.2-1.4,2.1-3,2.1c-1.8,0-3.5-1.3-3.5-3.6
					c0-2.1,1.6-3.5,3.3-3.5c2.1,0,3.3,1.3,3.3,3.5c0,0.3,0,0.5,0,0.6h-4.8c0,0.9,0.8,1.5,1.7,1.5c0.8,0,1.3-0.4,1.5-1L90.4-28.8z
					 M88.7-31c0-0.7-0.5-1.3-1.5-1.3c-0.9,0-1.5,0.7-1.5,1.3H88.7z"/>
				<path id="path46" inkscape:connector-curvature="0" d="M92.9-29.3c0.7,0,1.3,0.6,1.3,1.2c0,0.7-0.6,1.2-1.3,1.2
					c-0.7,0-1.2-0.6-1.2-1.2S92.2-29.3,92.9-29.3z"/>
			</g>
			<g id="g54" transform="translate(94.031429,15.555556)">
				<polygon id="polygon50" points="5.8,-49.2 5.8,-51.2 4.9,-49.2 4.4,-49.2 3.6,-51.2 3.6,-49.2 3.1,-49.2 3.1,-52.1 3.8,-52.1 
					4.7,-50 5.5,-52.1 6.3,-52.1 6.3,-49.2 				"/>
				<polygon id="polygon52" points="0.1,-51.6 0.1,-52.1 2.5,-52.1 2.5,-51.6 1.6,-51.6 1.6,-49.2 1,-49.2 1,-51.6 				"/>
			</g>
		</g>
	</g>
</g>
<g id="Page-1-5" transform="matrix(4.1835764,0,0,4.1835764,-310.66637,194.38418)" inkscape:export-filename="G:\Users\suitedoalex\sites\3m-logo-5.png" inkscape:export-xdpi="84.521439" inkscape:export-ydpi="84.521439">
	<g id="Trifecta-3M-001-Lockup-CMYK-Pos-3">
		<path id="Shape-8" inkscape:connector-curvature="0" class="st0" d="M189.2-42.3l-7.8,32l-7.9-32h-23.1v11.8
			c-2.8-10.3-12.5-12.9-21.6-13.1c-11-0.1-22.6,4.7-23,19.3H121c0-4.4,3.4-6.9,7.2-6.9c4.7,0,6.8,2,6.9,5.1
			c-0.2,2.7-1.8,4.6-6.9,4.6h-5.1v10.6h4.7c2.6,0,6.3,1.4,6.5,5.2c0.2,4.5-3,6.5-6.8,6.5c-6.9-0.2-8-5.6-8-10.1h-15.8
			c0.1,3.1-0.7,23,24.1,22.9c11.9,0.1,20.2-4.9,22.6-11.8v10.6H166V-22l8.4,34.5h13.7l8.5-34.5v34.5h15.6v-54.8H189.2z M150.4-10.3
			c-1.9-4-4.7-5.8-6.2-6.4c3.2-1.4,4.9-3.4,6.2-7.3V-10.3z"/>
	</g>
</g>
</svg>
